<svg version="1.1" xmlns="http://www.w3.org/2000/svg" xmlns:xlink="http://www.w3.org/1999/xlink" width="100.29132" height="118.4468" viewBox="0,0,100.29132,118.4468"><g transform="translate(-160.92529,-114.57054)"><g data-paper-data="{&quot;isPaintingLayer&quot;:true}" fill-rule="nonzero" stroke="#000000" stroke-width="2" stroke-linejoin="miter" stroke-miterlimit="10" stroke-dasharray="" stroke-dashoffset="0" style="mix-blend-mode: normal"><path d="M173.06105,187.71326c0,-24.46848 19.51043,-44.30408 43.57778,-44.30408c24.06735,0 43.57778,19.83561 43.57778,44.30408c0,24.46848 -19.51042,44.30408 -43.57778,44.30408c-24.06735,0 -43.57778,-19.83561 -43.57778,-44.30408z" fill="#3cffff" stroke-linecap="butt"/><path d="M254.47564,170.8308l-62.83946,-18.98746" fill="none" stroke-linecap="round"/><path d="M161.92529,141.77279c1.31601,-5.46145 11.43437,-7.70773 22.59999,-5.01721c11.16562,2.69051 19.1503,9.29897 17.83429,14.76042c-1.31601,5.46145 -11.43437,7.70773 -22.59999,5.01721c-11.16562,-2.69051 -19.1503,-9.29897 -17.83429,-14.76042z" fill="#000000" stroke-linecap="butt"/><path d="M201.58199,173.5433l-0.90416,24.41245" fill="none" stroke-linecap="round"/><path d="M220.11738,194.33909l0.90416,-22.15204" fill="none" stroke-linecap="round"/><path d="M176.84747,135.50586l17.50355,-19.5232l49.14458,44.06066l-17.50355,19.5232z" fill="#000000" stroke-linecap="butt"/></g></g></svg>