<svg version="1.1" xmlns="http://www.w3.org/2000/svg" xmlns:xlink="http://www.w3.org/1999/xlink" width="56.35475" height="66.57888" viewBox="0,0,56.35475,66.57888"><g transform="translate(-291.74416,-146.71055)"><g data-paper-data="{&quot;isPaintingLayer&quot;:true}" fill-rule="nonzero" stroke-linejoin="miter" stroke-miterlimit="10" stroke-dasharray="" stroke-dashoffset="0" style="mix-blend-mode: normal"><path d="M316.84252,212.28944c-13.30916,0 -24.09836,-10.96902 -24.09836,-24.5c0,-13.53098 10.7892,-24.5 24.09836,-24.5c13.30916,0 24.09836,10.96902 24.09836,24.5c0,13.53098 -10.7892,24.5 -24.09836,24.5z" data-paper-data="{&quot;index&quot;:null}" fill="#3cffff" stroke="#000000" stroke-width="2" stroke-linecap="butt"/><path d="M330.6689,167.9535l-34.75,10.5" data-paper-data="{&quot;index&quot;:null}" fill="none" stroke="#000000" stroke-width="2" stroke-linecap="round"/><path d="M337.23661,170.54698c-6.17455,1.48785 -11.76996,0.24566 -12.49771,-2.7745c-0.72775,-3.02016 3.68775,-6.67462 9.8623,-8.16246c6.17455,-1.48785 11.76996,-0.24566 12.49771,2.7745c0.72775,3.02016 -3.68775,6.67462 -9.8623,8.16246z" data-paper-data="{&quot;index&quot;:null}" fill="#000000" stroke="#000000" stroke-width="2" stroke-linecap="butt"/><path d="M325.1689,179.9535l0.5,13.5" data-paper-data="{&quot;index&quot;:null}" fill="none" stroke="#000000" stroke-width="2" stroke-linecap="round"/><path d="M314.9189,191.4535l-0.5,-12.25" data-paper-data="{&quot;index&quot;:null}" fill="none" stroke="#000000" stroke-width="2" stroke-linecap="round"/><path d="M314.6689,195.4535l8.25,5.5" data-paper-data="{&quot;index&quot;:null}" fill="none" stroke="#000000" stroke-width="2" stroke-linecap="round"/><path d="M311.67022,183.28432l-9.6794,-10.79626l27.17678,-24.36539l9.6794,10.79626z" data-paper-data="{&quot;index&quot;:null}" fill="#000000" stroke="#000000" stroke-width="2" stroke-linecap="butt"/><path d="M319.97834,211.36206c-0.08495,0.01494 -0.17796,0.02787 -0.27706,0.03657c-0.64058,0.71639 -1.4453,0.78674 -2.04599,0.70195c-0.48639,-0.04916 -0.93161,-0.23774 -1.29508,-0.52517c-0.18421,0.04325 -0.37628,0.06614 -0.57369,0.06614c-0.24775,0 -0.48708,-0.03604 -0.71304,-0.10316l-2.37941,-0.64893c-0.77462,-0.06727 -1.54923,-0.13454 -2.32385,-0.20181c0,0 -0.91166,-0.08288 -1.58151,-0.7c-1.82246,0.01972 -3.39844,0.00869 -5.32158,-1.02968c-1.96095,-1.05879 -3.80818,-3.72554 -5.34316,-5.60192c-0.33431,-0.15006 -0.67831,-0.3852 -0.93552,-0.75367c-0.26874,-0.37134 -0.44576,-0.87772 -0.41443,-1.56775c0.01622,-0.69055 0.22767,-1.18355 0.52132,-1.53552c0.46006,-0.57094 1.12625,-0.77183 1.59477,-0.84062c0.23008,-0.03779 0.38291,-0.03779 0.38291,-0.03779l0.01016,0.0041c0.10192,-0.0023 0.16185,0.00183 0.16185,0.00183c3.1131,0.21499 6.25153,0.10717 9.34891,0.48652c3.0841,0.37773 5.25311,2.2309 8.24168,2.59308c1.25505,0.1521 4.42177,-0.28332 5.45888,0.04815c3.57523,1.14266 6.98825,3.89671 4.33372,8.77827c-0.85629,1.57468 -3.28073,1.74131 -5.07266,1.78434c-0.68315,0.0164 -1.21958,-0.48731 -1.77722,-0.95493z" data-paper-data="{&quot;index&quot;:null}" fill="#00ff13" stroke="none" stroke-width="0.5" stroke-linecap="butt"/></g></g></svg>